<?xml version="1.0" encoding="UTF-8"?>
<svg xmlns="http://www.w3.org/2000/svg" xmlns:xlink="http://www.w3.org/1999/xlink" width="18pt" height="18pt" viewBox="0 0 18 18" version="1.1">
<g id="surface1">
<path style=" stroke:none;fill-rule:nonzero;fill:rgb(96.862745%,56.078431%,56.078431%);fill-opacity:1;" d="M 9 11.027344 L 3.535156 16.492188 L 1.507812 14.464844 L 6.972656 9 L 1.507812 3.535156 L 3.535156 1.507812 L 9 6.972656 L 14.464844 1.507812 L 16.492188 3.535156 L 11.027344 9 L 16.492188 14.464844 L 14.464844 16.492188 Z M 9 11.027344 "/>
<path style=" stroke:none;fill-rule:nonzero;fill:rgb(78.039216%,26.27451%,26.27451%);fill-opacity:1;" d="M 3.535156 1.667969 L 9 7.132812 L 14.464844 1.667969 L 16.332031 3.535156 L 10.867188 9 L 16.332031 14.464844 L 14.464844 16.332031 L 9 10.867188 L 3.535156 16.332031 L 1.667969 14.464844 L 7.132812 9 L 1.667969 3.535156 L 3.535156 1.667969 M 14.464844 1.351562 L 9 6.8125 L 3.535156 1.351562 L 1.351562 3.535156 L 6.8125 9 L 1.351562 14.464844 L 3.535156 16.648438 L 9 11.1875 L 14.464844 16.648438 L 16.648438 14.464844 L 11.1875 9 L 16.648438 3.535156 Z M 14.464844 1.351562 "/>
</g>
</svg>
<svg 
 xmlns="http://www.w3.org/2000/svg"
 xmlns:xlink="http://www.w3.org/1999/xlink"
 width="15px" height="15px">
<path fill-rule="evenodd"  opacity="0.702" fill="rgb(228, 80, 40)"
 d="M9.824,7.487 L14.497,12.160 C15.143,12.806 15.143,13.852 14.497,14.497 C13.852,15.142 12.806,15.142 12.161,14.497 L7.487,9.824 L2.814,14.497 C2.168,15.142 1.122,15.142 0.477,14.497 C-0.168,13.852 -0.168,12.806 0.477,12.160 L5.150,7.487 L0.477,2.813 C-0.168,2.168 -0.168,1.122 0.477,0.476 C1.122,-0.169 2.168,-0.169 2.814,0.476 L7.487,5.150 L12.161,0.476 C12.806,-0.169 13.852,-0.169 14.497,0.476 C15.143,1.122 15.143,2.168 14.497,2.813 L9.824,7.487 Z"/>
</svg>