<?xml version="1.0" encoding="UTF-8"?>
<svg xmlns="http://www.w3.org/2000/svg" xmlns:xlink="http://www.w3.org/1999/xlink" width="37pt" height="37pt" viewBox="0 0 37 37" version="1.1">
<g id="surface1">
<path style=" stroke:none;fill-rule:nonzero;fill:rgb(100%,100%,100%);fill-opacity:1;" d="M 36.566406 33.328125 C 36.519531 33.160156 36.480469 33.019531 36.441406 32.90625 C 35.804688 30.886719 34.582031 28.402344 32.785156 25.464844 L 32.746094 25.394531 L 32.726562 25.363281 L 32.710938 25.328125 L 32.691406 25.328125 C 31.875 23.957031 31.355469 23.039062 31.140625 22.566406 C 30.746094 21.671875 30.652344 20.761719 30.871094 19.835938 C 31.023438 19.140625 31.597656 17.671875 32.59375 15.425781 C 33.117188 14.238281 33.53125 13.28125 33.839844 12.566406 C 36.042969 7.402344 37.003906 4.101562 36.707031 2.664062 L 36.597656 2.328125 C 36.515625 2.128906 36.320312 1.941406 36 1.773438 C 35.683594 1.605469 35.273438 1.574219 34.777344 1.6875 L 29.261719 1.753906 C 29.175781 1.699219 29.046875 1.703125 28.882812 1.769531 C 28.714844 1.84375 28.628906 1.875 28.628906 1.875 L 28.535156 1.960938 L 28.460938 2.0625 C 28.394531 2.128906 28.328125 2.242188 28.25 2.410156 C 28.175781 2.582031 28.109375 2.78125 28.058594 3.003906 C 27.457031 5.71875 26.777344 8.242188 26.011719 10.582031 C 25.539062 11.972656 25.105469 13.179688 24.707031 14.203125 C 24.3125 15.222656 23.980469 15.976562 23.714844 16.457031 C 23.445312 16.9375 23.203125 17.328125 22.988281 17.617188 C 22.769531 17.910156 22.601562 18.035156 22.488281 17.988281 C 22.375 17.941406 22.265625 17.898438 22.164062 17.855469 C 21.984375 17.648438 21.84375 17.375 21.734375 17.03125 C 21.625 16.679688 21.550781 16.242188 21.511719 15.714844 C 21.472656 15.1875 21.453125 14.730469 21.445312 14.351562 C 21.441406 13.96875 21.441406 13.429688 21.457031 12.738281 C 21.46875 12.039062 21.472656 11.566406 21.472656 11.320312 C 21.472656 10.464844 21.484375 9.539062 21.503906 8.542969 C 21.523438 7.539062 21.539062 6.75 21.550781 6.167969 C 21.566406 5.585938 21.570312 4.96875 21.570312 4.3125 C 21.570312 3.664062 21.546875 3.152344 21.503906 2.78125 C 21.457031 2.410156 21.390625 2.054688 21.300781 1.703125 C 21.210938 1.359375 21.082031 1.089844 20.910156 0.898438 C 20.738281 0.707031 20.523438 0.554688 20.269531 0.441406 C 19.59375 0.171875 18.730469 0.0273438 17.683594 0.00390625 C 15.3125 -0.0429688 13.785156 0.226562 13.113281 0.8125 C 12.84375 1.054688 12.601562 1.394531 12.382812 1.824219 C 12.152344 2.316406 12.121094 2.585938 12.289062 2.632812 C 13.054688 2.832031 13.59375 3.316406 13.914062 4.078125 L 14.027344 4.480469 C 14.117188 4.773438 14.210938 5.289062 14.296875 6.03125 C 14.386719 6.769531 14.445312 7.59375 14.46875 8.488281 C 14.53125 10.128906 14.53125 11.53125 14.46875 12.703125 C 14.40625 13.863281 14.34375 14.773438 14.289062 15.425781 C 14.230469 16.078125 14.144531 16.605469 14.027344 17.011719 C 13.914062 17.414062 13.839844 17.65625 13.796875 17.753906 C 13.761719 17.839844 13.726562 17.898438 13.703125 17.917969 C 13.539062 18.03125 13.363281 18.085938 13.1875 18.085938 C 13.007812 18.085938 12.792969 17.929688 12.535156 17.613281 C 12.28125 17.300781 12.015625 16.867188 11.742188 16.320312 C 11.46875 15.769531 11.160156 15 10.8125 14.007812 C 10.46875 13.023438 10.113281 11.855469 9.742188 10.511719 L 9.433594 9.53125 C 9.242188 8.902344 8.984375 7.988281 8.652344 6.785156 C 8.320312 5.589844 8.027344 4.425781 7.769531 3.304688 C 7.667969 2.832031 7.515625 2.472656 7.308594 2.222656 L 7.214844 2.125 C 7.152344 2.035156 7.050781 1.941406 6.910156 1.839844 C 6.769531 1.734375 6.625 1.660156 6.46875 1.617188 L 1.222656 1.6875 C 0.6875 1.6875 0.324219 1.902344 0.132812 2.324219 L 0.0546875 2.527344 C 0.0195312 2.644531 0 2.820312 0 3.066406 C 0 3.316406 0.0390625 3.617188 0.113281 3.980469 C 0.878906 7.144531 1.710938 10.195312 2.613281 13.136719 C 3.511719 16.078125 4.292969 18.449219 4.957031 20.242188 C 5.621094 22.039062 6.296875 23.734375 6.984375 25.328125 C 7.675781 26.921875 8.132812 27.945312 8.351562 28.394531 C 8.578125 28.84375 8.753906 29.175781 8.878906 29.402344 L 9.359375 30.210938 C 9.664062 30.753906 10.113281 31.394531 10.707031 32.144531 C 11.304688 32.902344 11.960938 33.640625 12.679688 34.371094 C 13.402344 35.101562 14.238281 35.695312 15.199219 36.15625 C 16.152344 36.617188 17.085938 36.800781 17.992188 36.710938 L 20.195312 36.710938 C 20.636719 36.644531 20.976562 36.394531 21.207031 35.972656 L 21.28125 35.804688 C 21.335938 35.664062 21.382812 35.457031 21.425781 35.179688 C 21.472656 34.898438 21.496094 34.589844 21.496094 34.25 C 21.480469 33.285156 21.523438 32.417969 21.617188 31.644531 C 21.714844 30.871094 21.820312 30.285156 21.945312 29.890625 C 22.066406 29.5 22.203125 29.167969 22.355469 28.898438 C 22.507812 28.628906 22.617188 28.464844 22.679688 28.410156 C 22.742188 28.355469 22.796875 28.316406 22.832031 28.292969 C 23.140625 28.113281 23.5 28.289062 23.914062 28.816406 C 24.328125 29.34375 24.71875 29.996094 25.082031 30.769531 C 25.445312 31.542969 25.882812 32.414062 26.394531 33.378906 C 26.90625 34.34375 27.351562 35.0625 27.730469 35.53125 L 28.117188 35.9375 C 28.371094 36.207031 28.703125 36.453125 29.113281 36.679688 C 29.519531 36.902344 29.878906 36.960938 30.183594 36.847656 L 35.082031 36.714844 C 35.566406 36.714844 35.945312 36.574219 36.210938 36.289062 C 36.480469 36.011719 36.636719 35.699219 36.691406 35.367188 C 36.742188 35.027344 36.746094 34.648438 36.703125 34.21875 C 36.65625 33.796875 36.609375 33.492188 36.566406 33.328125 Z M 36.566406 33.328125 "/>
</g>
</svg>
